<mxfile host="app.diagrams.net" modified="2023-02-24T06:28:18.410Z" agent="5.0 (Macintosh; Intel Mac OS X 10_15_7) AppleWebKit/605.1.15 (KHTML, like Gecko) Version/16.2 Safari/605.1.15" etag="MglMk1oV8FyL_rOYg0Sy" version="20.8.23" type="github">
  <diagram name="Page-1" id="zls9VgfqrjowzOQlfSpR">
    <mxGraphModel dx="970" dy="507" grid="0" gridSize="10" guides="1" tooltips="1" connect="1" arrows="1" fold="1" page="1" pageScale="1" pageWidth="1169" pageHeight="827" math="0" shadow="0">
      <root>
        <mxCell id="0" />
        <mxCell id="1" parent="0" />
        <mxCell id="c_-B8KapChvatgPrdNAc-84" style="edgeStyle=orthogonalEdgeStyle;rounded=0;orthogonalLoop=1;jettySize=auto;html=1;exitX=0.5;exitY=1;exitDx=0;exitDy=0;entryX=0;entryY=0.5;entryDx=0;entryDy=0;" edge="1" parent="1" source="c_-B8KapChvatgPrdNAc-16" target="c_-B8KapChvatgPrdNAc-18">
          <mxGeometry relative="1" as="geometry" />
        </mxCell>
        <mxCell id="c_-B8KapChvatgPrdNAc-85" style="edgeStyle=orthogonalEdgeStyle;rounded=0;orthogonalLoop=1;jettySize=auto;html=1;exitX=0.5;exitY=0;exitDx=0;exitDy=0;entryX=0;entryY=0.5;entryDx=0;entryDy=0;" edge="1" parent="1" source="c_-B8KapChvatgPrdNAc-16" target="c_-B8KapChvatgPrdNAc-58">
          <mxGeometry relative="1" as="geometry" />
        </mxCell>
        <mxCell id="c_-B8KapChvatgPrdNAc-16" value="User inputs" style="rounded=0;whiteSpace=wrap;html=1;" vertex="1" parent="1">
          <mxGeometry x="167" y="317" width="89" height="45" as="geometry" />
        </mxCell>
        <mxCell id="c_-B8KapChvatgPrdNAc-74" style="edgeStyle=orthogonalEdgeStyle;rounded=0;orthogonalLoop=1;jettySize=auto;html=1;exitX=0.5;exitY=1;exitDx=0;exitDy=0;entryX=0.5;entryY=0;entryDx=0;entryDy=0;entryPerimeter=0;" edge="1" parent="1" source="c_-B8KapChvatgPrdNAc-18" target="c_-B8KapChvatgPrdNAc-34">
          <mxGeometry relative="1" as="geometry" />
        </mxCell>
        <mxCell id="c_-B8KapChvatgPrdNAc-76" style="edgeStyle=orthogonalEdgeStyle;rounded=0;orthogonalLoop=1;jettySize=auto;html=1;exitX=1;exitY=0.5;exitDx=0;exitDy=0;entryX=0;entryY=0.5;entryDx=0;entryDy=0;" edge="1" parent="1" source="c_-B8KapChvatgPrdNAc-18" target="c_-B8KapChvatgPrdNAc-28">
          <mxGeometry relative="1" as="geometry" />
        </mxCell>
        <mxCell id="c_-B8KapChvatgPrdNAc-18" value="Authentication&lt;br&gt;System" style="ellipse;whiteSpace=wrap;html=1;aspect=fixed;rounded=0;strokeColor=default;fontFamily=Helvetica;fontSize=12;fontColor=default;fillColor=none;" vertex="1" parent="1">
          <mxGeometry x="358" y="371.5" width="85.5" height="85.5" as="geometry" />
        </mxCell>
        <mxCell id="c_-B8KapChvatgPrdNAc-19" value="email / user id,&lt;br&gt;password" style="text;html=1;align=center;verticalAlign=middle;resizable=0;points=[];autosize=1;strokeColor=none;fillColor=none;" vertex="1" parent="1">
          <mxGeometry x="254" y="394.25" width="96" height="40" as="geometry" />
        </mxCell>
        <mxCell id="c_-B8KapChvatgPrdNAc-78" style="edgeStyle=orthogonalEdgeStyle;rounded=0;orthogonalLoop=1;jettySize=auto;html=1;exitX=0.5;exitY=1;exitDx=0;exitDy=0;entryX=0.5;entryY=0;entryDx=0;entryDy=0;" edge="1" parent="1" source="c_-B8KapChvatgPrdNAc-28" target="c_-B8KapChvatgPrdNAc-31">
          <mxGeometry relative="1" as="geometry" />
        </mxCell>
        <mxCell id="c_-B8KapChvatgPrdNAc-28" value="Create cookie" style="ellipse;whiteSpace=wrap;html=1;aspect=fixed;rounded=0;strokeColor=default;fontFamily=Helvetica;fontSize=12;fontColor=default;fillColor=none;" vertex="1" parent="1">
          <mxGeometry x="555" y="309.5" width="60" height="60" as="geometry" />
        </mxCell>
        <mxCell id="c_-B8KapChvatgPrdNAc-30" value="user id" style="text;html=1;align=center;verticalAlign=middle;resizable=0;points=[];autosize=1;strokeColor=none;fillColor=none;" vertex="1" parent="1">
          <mxGeometry x="494" y="333.5" width="54" height="26" as="geometry" />
        </mxCell>
        <mxCell id="c_-B8KapChvatgPrdNAc-31" value="Browser" style="shape=partialRectangle;whiteSpace=wrap;html=1;left=0;right=0;fillColor=none;rounded=0;strokeColor=default;fontFamily=Helvetica;fontSize=12;fontColor=default;" vertex="1" parent="1">
          <mxGeometry x="557.25" y="409.25" width="57.5" height="25" as="geometry" />
        </mxCell>
        <mxCell id="c_-B8KapChvatgPrdNAc-33" value="cookie" style="text;html=1;align=center;verticalAlign=middle;resizable=0;points=[];autosize=1;strokeColor=none;fillColor=none;" vertex="1" parent="1">
          <mxGeometry x="537" y="369" width="53" height="26" as="geometry" />
        </mxCell>
        <mxCell id="c_-B8KapChvatgPrdNAc-34" value="Main page" style="shape=card;whiteSpace=wrap;html=1;" vertex="1" parent="1">
          <mxGeometry x="351.75" y="475" width="98" height="59.75" as="geometry" />
        </mxCell>
        <mxCell id="c_-B8KapChvatgPrdNAc-40" value="" style="edgeStyle=orthogonalEdgeStyle;rounded=0;orthogonalLoop=1;jettySize=auto;html=1;entryX=0.5;entryY=1;entryDx=0;entryDy=0;" edge="1" parent="1" source="c_-B8KapChvatgPrdNAc-36" target="c_-B8KapChvatgPrdNAc-31">
          <mxGeometry relative="1" as="geometry">
            <mxPoint x="441" y="570.75" as="targetPoint" />
          </mxGeometry>
        </mxCell>
        <mxCell id="c_-B8KapChvatgPrdNAc-75" style="edgeStyle=orthogonalEdgeStyle;rounded=0;orthogonalLoop=1;jettySize=auto;html=1;exitX=0;exitY=0.5;exitDx=0;exitDy=0;entryX=1;entryY=0.5;entryDx=0;entryDy=0;entryPerimeter=0;" edge="1" parent="1" source="c_-B8KapChvatgPrdNAc-36" target="c_-B8KapChvatgPrdNAc-34">
          <mxGeometry relative="1" as="geometry" />
        </mxCell>
        <mxCell id="c_-B8KapChvatgPrdNAc-36" value="Clean cookie" style="ellipse;whiteSpace=wrap;html=1;aspect=fixed;rounded=0;strokeColor=default;fontFamily=Helvetica;fontSize=12;fontColor=default;fillColor=none;" vertex="1" parent="1">
          <mxGeometry x="555" y="473.76" width="62.25" height="62.25" as="geometry" />
        </mxCell>
        <mxCell id="c_-B8KapChvatgPrdNAc-47" value="" style="edgeStyle=orthogonalEdgeStyle;rounded=0;orthogonalLoop=1;jettySize=auto;html=1;" edge="1" parent="1" source="c_-B8KapChvatgPrdNAc-46" target="c_-B8KapChvatgPrdNAc-36">
          <mxGeometry relative="1" as="geometry" />
        </mxCell>
        <mxCell id="c_-B8KapChvatgPrdNAc-46" value="Logout" style="ellipse;whiteSpace=wrap;html=1;aspect=fixed;rounded=0;strokeColor=default;fontFamily=Helvetica;fontSize=12;fontColor=default;fillColor=none;" vertex="1" parent="1">
          <mxGeometry x="671.25" y="474.88" width="60" height="60" as="geometry" />
        </mxCell>
        <mxCell id="c_-B8KapChvatgPrdNAc-48" value="user id" style="text;html=1;align=center;verticalAlign=middle;resizable=0;points=[];autosize=1;strokeColor=none;fillColor=none;" vertex="1" parent="1">
          <mxGeometry x="622.25" y="482.88" width="54" height="26" as="geometry" />
        </mxCell>
        <mxCell id="c_-B8KapChvatgPrdNAc-52" value="email, &lt;br&gt;repeated password" style="text;html=1;align=center;verticalAlign=middle;resizable=0;points=[];autosize=1;strokeColor=none;fillColor=none;" vertex="1" parent="1">
          <mxGeometry x="235.5" y="183" width="120" height="40" as="geometry" />
        </mxCell>
        <mxCell id="c_-B8KapChvatgPrdNAc-53" value="User profile&lt;br&gt;page" style="shape=card;whiteSpace=wrap;html=1;" vertex="1" parent="1">
          <mxGeometry x="508.5" y="152.99999999999994" width="99" height="59.41" as="geometry" />
        </mxCell>
        <mxCell id="c_-B8KapChvatgPrdNAc-69" style="edgeStyle=orthogonalEdgeStyle;rounded=0;orthogonalLoop=1;jettySize=auto;html=1;exitX=0.952;exitY=0.712;exitDx=0;exitDy=0;entryX=0.5;entryY=0;entryDx=0;entryDy=0;exitPerimeter=0;" edge="1" parent="1" source="c_-B8KapChvatgPrdNAc-58" target="c_-B8KapChvatgPrdNAc-28">
          <mxGeometry relative="1" as="geometry">
            <mxPoint x="585" y="277.5" as="targetPoint" />
          </mxGeometry>
        </mxCell>
        <mxCell id="c_-B8KapChvatgPrdNAc-87" style="edgeStyle=orthogonalEdgeStyle;rounded=0;orthogonalLoop=1;jettySize=auto;html=1;exitX=0.948;exitY=0.278;exitDx=0;exitDy=0;entryX=0;entryY=0;entryDx=0;entryDy=30;entryPerimeter=0;exitPerimeter=0;" edge="1" parent="1" source="c_-B8KapChvatgPrdNAc-58" target="c_-B8KapChvatgPrdNAc-53">
          <mxGeometry relative="1" as="geometry" />
        </mxCell>
        <mxCell id="c_-B8KapChvatgPrdNAc-58" value="Registration System" style="ellipse;whiteSpace=wrap;html=1;aspect=fixed;rounded=0;strokeColor=default;fontFamily=Helvetica;fontSize=12;fontColor=default;fillColor=none;" vertex="1" parent="1">
          <mxGeometry x="355.5" y="158" width="90" height="90" as="geometry" />
        </mxCell>
        <mxCell id="c_-B8KapChvatgPrdNAc-80" value="" style="edgeStyle=orthogonalEdgeStyle;rounded=0;orthogonalLoop=1;jettySize=auto;html=1;" edge="1" parent="1" source="c_-B8KapChvatgPrdNAc-60" target="c_-B8KapChvatgPrdNAc-58">
          <mxGeometry relative="1" as="geometry" />
        </mxCell>
        <mxCell id="c_-B8KapChvatgPrdNAc-81" value="" style="edgeStyle=orthogonalEdgeStyle;rounded=0;orthogonalLoop=1;jettySize=auto;html=1;" edge="1" parent="1" source="c_-B8KapChvatgPrdNAc-60" target="c_-B8KapChvatgPrdNAc-18">
          <mxGeometry relative="1" as="geometry" />
        </mxCell>
        <mxCell id="c_-B8KapChvatgPrdNAc-60" value="User entity(database)" style="shape=partialRectangle;whiteSpace=wrap;html=1;left=0;right=0;fillColor=none;rounded=0;strokeColor=default;fontFamily=Helvetica;fontSize=12;fontColor=default;" vertex="1" parent="1">
          <mxGeometry x="340.5" y="293" width="120" height="24" as="geometry" />
        </mxCell>
        <mxCell id="c_-B8KapChvatgPrdNAc-65" value="user id" style="text;html=1;align=center;verticalAlign=middle;resizable=0;points=[];autosize=1;strokeColor=none;fillColor=none;" vertex="1" parent="1">
          <mxGeometry x="531" y="222" width="54" height="26" as="geometry" />
        </mxCell>
        <mxCell id="c_-B8KapChvatgPrdNAc-82" value="correct password confirm,&lt;br&gt;&lt;div style=&quot;text-align: right;&quot;&gt;user id&lt;/div&gt;" style="text;html=1;align=center;verticalAlign=middle;resizable=0;points=[];autosize=1;strokeColor=none;fillColor=none;" vertex="1" parent="1">
          <mxGeometry x="317" y="319.5" width="155" height="40" as="geometry" />
        </mxCell>
        <mxCell id="c_-B8KapChvatgPrdNAc-83" value="not exist email confirm,&lt;br&gt;user id" style="text;html=1;align=left;verticalAlign=middle;resizable=0;points=[];autosize=1;strokeColor=none;fillColor=none;" vertex="1" parent="1">
          <mxGeometry x="402" y="255" width="141" height="40" as="geometry" />
        </mxCell>
      </root>
    </mxGraphModel>
  </diagram>
</mxfile>
